<svg id="Layer_1" data-name="Layer 1" xmlns="http://www.w3.org/2000/svg" viewBox="0 0 38 31.06"><defs><style>.cls-1{fill:#fff;}</style></defs><title>Home-38</title><g id="图层_2" data-name="图层 2"><g id="图层_1-2" data-name="图层 1-2"><path class="cls-1" d="M29.33,6.43,11.93-6.23a1.61,1.61,0,0,0-1.87,0L-7.34,6.43a1.58,1.58,0,0,0-.35,2.21A1.58,1.58,0,0,0-5.48,9l1.62-1.17V22.92a1.59,1.59,0,0,0,1.59,1.59H7.09a1.59,1.59,0,0,0,1.59-1.59h0V12.46h4.64V22.94a1.59,1.59,0,0,0,1.59,1.58h9.38a1.59,1.59,0,0,0,1.59-1.58h0V7.81L27.5,9a1.62,1.62,0,0,0,2.21-.35,1.58,1.58,0,0,0-.35-2.21ZM14.89,9.26H7.09A1.59,1.59,0,0,0,5.5,10.85h0V21.33H-.7V5.55L11-3,22.68,5.55V21.36h-6.2V10.83A1.58,1.58,0,0,0,14.89,9.26Z" transform="translate(7.99 6.53)"/></g></g></svg>