<svg id="Layer_1" data-name="Layer 1" xmlns="http://www.w3.org/2000/svg" viewBox="0 0 38 37.27"><defs><style>.cls-1{fill:#fff;}</style></defs><title>Logout-38</title><g id="图层_2" data-name="图层 2"><g id="图层_1-2" data-name="图层 1-2"><path class="cls-1" d="M21.87,32.68A1.86,1.86,0,0,1,20,34.54H4.58a1.87,1.87,0,0,1-1.87-1.86h0v-28A1.86,1.86,0,0,1,4.52,2.72H20A1.87,1.87,0,0,1,21.8,4.61V10h2.66V4.63A4.58,4.58,0,0,0,19.93,0H4.58A4.6,4.6,0,0,0,0,4.63H0v28.1a4.6,4.6,0,0,0,4.59,4.59H20a4.59,4.59,0,0,0,4.59-4.59V27.24H21.87Z" transform="translate(0.01 -0.04)"/><path class="cls-1" d="M37.64,17.63,29.8,9.82a1.35,1.35,0,0,0-1.87.35,1.38,1.38,0,0,0,0,1.51l5.59,5.59H13.9a1.33,1.33,0,0,0,0,2.66H33.4l-5.46,5.48a1.34,1.34,0,0,0,.37,1.86,1.31,1.31,0,0,0,1.49,0l7.81-7.78a1.33,1.33,0,0,0,0-1.87h0Z" transform="translate(0.01 -0.04)"/></g></g></svg>