<svg id="Layer_1" data-name="Layer 1" xmlns="http://www.w3.org/2000/svg" viewBox="0 0 38 40.4"><defs><style>.cls-1{fill:#fff;}</style></defs><title>Setting-38</title><g id="图层_2" data-name="图层 2"><g id="图层_1-2" data-name="图层 1-2"><path class="cls-1" d="M10.39,17a6.1,6.1,0,1,1,6.09-6.09V11a6.09,6.09,0,0,1-6.08,6.11h0Zm0-8.92a2.83,2.83,0,1,0,0,5.65h0A2.78,2.78,0,0,0,13.21,11h0a2.84,2.84,0,0,0-2.82-2.83Z" transform="translate(8.65 9.2)"/><path class="cls-1" d="M8.33,31.2a3.91,3.91,0,0,1-3.89-3.9V25h0a15,15,0,0,1-3.11-1.84h0L-.61,24.33a4.05,4.05,0,0,1-1.95.51,3.94,3.94,0,0,1-3.38-2l-2.18-3.54A3.9,3.9,0,0,1-6.71,14h0l1.84-1.12h0A15,15,0,0,1-5,11a16.22,16.22,0,0,1,.11-1.84h0l-1.84-1.1A3.93,3.93,0,0,1-8.12,2.74l2-3.6a3.88,3.88,0,0,1,3.38-2,3.79,3.79,0,0,1,1.94.52L1.08-1.23h0A14.93,14.93,0,0,1,4.31-3.06h0V-5.3A3.92,3.92,0,0,1,8.24-9.2h4.17A3.92,3.92,0,0,1,16.3-5.3v2.11h0a15.31,15.31,0,0,1,3.25,1.83h0l1.83-1.06a4.18,4.18,0,0,1,1.95-.52,4,4,0,0,1,3.38,2l2.06,3.52a3.9,3.9,0,0,1-1.41,5.33h0L25.52,9h0a16.74,16.74,0,0,1,.11,1.73,15.46,15.46,0,0,1-.08,2.15h0l1.84,1.1a3.81,3.81,0,0,1,1.83,2.39,3.73,3.73,0,0,1-.42,2.93l-2.05,3.53a3.87,3.87,0,0,1-3.38,2,3.79,3.79,0,0,1-1.95-.51l-2-1.14h0a15.51,15.51,0,0,1-3.12,1.84h0v2.25a3.91,3.91,0,0,1-3.81,4H8.33Zm-.88-8.54a1.62,1.62,0,0,1,.26.88v3.67a.64.64,0,0,0,.64.65h4.07a.65.65,0,0,0,.65-.65h0V23.54a1.68,1.68,0,0,1,.25-.92A12,12,0,0,0,19,19.37h0a1.72,1.72,0,0,1,.84.22l1.84,1.1,1.3.76a.57.57,0,0,0,.32.09.63.63,0,0,0,.56-.33l2-3.53a.65.65,0,0,0,0-.51.56.56,0,0,0-.29-.35l-1.27-.75L22.49,15a1.64,1.64,0,0,1-.66-.72,12.29,12.29,0,0,0,0-6.59,1.64,1.64,0,0,1,.66-.72l1.83-1.1,1.25-.72a.63.63,0,0,0,.24-.87h0L24,.76a.69.69,0,0,0-.57-.34.81.81,0,0,0-.31,0l-1.23.72L20.08,2.22a1.58,1.58,0,0,1-.84.22h-.17A12,12,0,0,0,13.38-.79a1.61,1.61,0,0,1-.29-.95V-5.29a.65.65,0,0,0-.65-.64H8.37a.65.65,0,0,0-.65.64h0v3.44a1.54,1.54,0,0,1-.31,1A12.05,12.05,0,0,0,1.72,2.41H1.61a1.62,1.62,0,0,1-.84-.22L-1.07,1.1-2.28.39A.44.44,0,0,0-2.59.3a.64.64,0,0,0-.56.42L-5.28,4.26a.72.72,0,0,0,0,.5.63.63,0,0,0,.3.38l1.25.72L-1.9,7a1.74,1.74,0,0,1,.59.7,12.17,12.17,0,0,0,0,6.61,1.68,1.68,0,0,1-.64.68l-1.84,1.12-1.28.75a.65.65,0,0,0-.25.88h0l2.16,3.53a.68.68,0,0,0,.57.33.86.86,0,0,0,.32,0l1.32-.75L.89,19.72a1.68,1.68,0,0,1,.85-.22h0a12.06,12.06,0,0,0,5.69,3.25Z" transform="translate(8.65 9.2)"/></g></g></svg>